<svg width="26" height="29" viewBox="0 0 26 29" fill="none" xmlns="http://www.w3.org/2000/svg">
<path d="M3.9506 6.16823C11.6396 4.23786 21.199 4.35622 23.4083 6.872C25.6175 9.38778 25.572 17.7999 22.9895 20.1082C20.4084 22.4164 9.19932 22.6358 5.6482 20.1082C1.89644 17.4362 4.0733 9.21664 3.9506 4.23786C4.02422 1.45183 1 1 1 1" stroke="#ADABAB" stroke-width="1.08266" stroke-linecap="round" stroke-linejoin="round"/>
<path d="M16.1658 12.3601H20.1687" stroke="#ADABAB" stroke-width="1.08266" stroke-linecap="round" stroke-linejoin="round"/>
<path fill-rule="evenodd" clip-rule="evenodd" d="M6.21666 25.9407C6.64972 25.9407 7.00195 26.2929 7.00195 26.726C7.00195 27.1605 6.64972 27.5127 6.21666 27.5127C5.78216 27.5127 5.42993 27.1605 5.42993 26.726C5.42993 26.2929 5.78216 25.9407 6.21666 25.9407Z" stroke="#ADABAB" stroke-width="1.08266" stroke-linecap="round" stroke-linejoin="round"/>
<path fill-rule="evenodd" clip-rule="evenodd" d="M21.1306 25.9407C21.5651 25.9407 21.9174 26.2929 21.9174 26.726C21.9174 27.1605 21.5651 27.5127 21.1306 27.5127C20.6976 27.5127 20.3453 27.1605 20.3453 26.726C20.3453 26.2929 20.6976 25.9407 21.1306 25.9407Z" stroke="#ADABAB" stroke-width="1.08266" stroke-linecap="round" stroke-linejoin="round"/>
</svg>
