<svg width="85" height="14" viewBox="0 0 85 14" fill="none" xmlns="http://www.w3.org/2000/svg">
<path d="M21.6897 0.549789C23.6738 0.549789 25.1976 1.02598 26.2611 1.97836C27.3246 2.91487 27.8563 4.3355 27.8563 6.24027V13.5498H24.3802V11.9546C23.6817 13.145 22.3802 13.7403 20.4754 13.7403C19.4913 13.7403 18.6341 13.5736 17.904 13.2403C17.1897 12.9069 16.6421 12.4466 16.2611 11.8593C15.8802 11.272 15.6897 10.6053 15.6897 9.85931C15.6897 8.66884 16.1341 7.73233 17.023 7.04979C17.9278 6.36725 19.3167 6.02598 21.1897 6.02598H24.1421C24.1421 5.21646 23.896 4.59741 23.404 4.16884C22.9119 3.72439 22.1738 3.50217 21.1897 3.50217C20.5071 3.50217 19.8325 3.61328 19.1659 3.8355C18.5151 4.04185 17.9595 4.32757 17.4992 4.69265L16.1659 2.09741C16.8643 1.60534 17.6976 1.22439 18.6659 0.95455C19.65 0.68471 20.6579 0.549789 21.6897 0.549789ZM21.404 11.2403C22.0389 11.2403 22.6024 11.0974 23.0944 10.8117C23.5865 10.5101 23.9357 10.0736 24.1421 9.50217V8.19265H21.5944C20.0706 8.19265 19.3087 8.69265 19.3087 9.69265C19.3087 10.1688 19.4913 10.5498 19.8563 10.8355C20.2373 11.1053 20.7532 11.2403 21.404 11.2403Z" fill="#F42155"/>
<path d="M42.7674 3.53904C42.7913 3.58028 42.9373 3.88086 43.2056 4.44078L34.8134 9.28602C35.3614 9.88604 36.0323 10.2227 36.8261 10.2959C37.6198 10.3692 38.436 10.1637 39.2745 9.67961C39.8519 9.34628 40.3129 8.97015 40.6575 8.55122C41.008 8.11061 41.2685 7.59362 41.4391 7.00024L44.222 7.86792C43.8677 9.66703 42.6871 11.146 40.6801 12.3047C39.4292 13.0269 38.1837 13.4252 36.9437 13.4997C35.6957 13.5603 34.5606 13.3085 33.5382 12.744C32.5159 12.1796 31.6872 11.3475 31.0523 10.2478C30.4253 9.16183 30.1161 8.03901 30.1247 6.87934C30.1392 5.69798 30.4543 4.6088 31.07 3.6118C31.6915 2.59312 32.5591 1.76235 33.6725 1.11949C34.7585 0.492507 35.8763 0.158736 37.0259 0.118178C38.1755 0.0776207 39.2517 0.35437 40.2545 0.948428C41.2631 1.5208 42.1008 2.38434 42.7674 3.53904ZM35.0979 3.54071C34.3693 3.96134 33.8767 4.52071 33.6199 5.21882C33.3631 5.91693 33.3861 6.65513 33.6888 7.43344L39.153 4.27868C38.6383 3.6411 38.0144 3.25897 37.2815 3.1323C36.5406 2.99187 35.8127 3.12801 35.0979 3.54071Z" fill="#F42155"/>
<path d="M62.779 0.549789C64.3822 0.549789 65.652 1.02598 66.5885 1.97836C67.5409 2.91487 68.0171 4.32757 68.0171 6.21646V13.5498H64.3028V6.78789C64.3028 5.77201 64.0885 5.01804 63.66 4.52598C63.2473 4.01804 62.652 3.76408 61.8742 3.76408C61.0012 3.76408 60.3107 4.04979 59.8028 4.62122C59.2949 5.17677 59.0409 6.01011 59.0409 7.12122V13.5498H55.3266V6.78789C55.3266 4.77201 54.5171 3.76408 52.898 3.76408C52.0409 3.76408 51.3584 4.04979 50.8504 4.62122C50.3425 5.17677 50.0885 6.01011 50.0885 7.12122V13.5498H46.3742V0.740265H49.9219V2.21646C50.398 1.67677 50.9774 1.26407 51.6599 0.978361C52.3584 0.692647 53.1203 0.549789 53.9457 0.549789C54.8504 0.549789 55.6679 0.732329 56.398 1.09741C57.1282 1.44661 57.7155 1.96249 58.16 2.64503C58.6838 1.97836 59.3425 1.46249 60.1361 1.09741C60.9457 0.732329 61.8266 0.549789 62.779 0.549789Z" fill="#F42155"/>
<path d="M83.3565 3.53904C83.3803 3.58028 83.5264 3.88086 83.7947 4.44078L75.4025 9.28602C75.9505 9.88604 76.6214 10.2227 77.4152 10.2959C78.2089 10.3692 79.0251 10.1637 79.8636 9.67961C80.441 9.34628 80.902 8.97015 81.2466 8.55122C81.5971 8.11061 81.8576 7.59362 82.0282 7.00024L84.8111 7.86792C84.4568 9.66703 83.2762 11.146 81.2692 12.3047C80.0183 13.0269 78.7728 13.4252 77.5328 13.4997C76.2848 13.5603 75.1497 13.3085 74.1273 12.744C73.1049 12.1796 72.2763 11.3475 71.6414 10.2478C71.0144 9.16183 70.7052 8.03901 70.7138 6.87934C70.7282 5.69798 71.0433 4.6088 71.6591 3.6118C72.2806 2.59312 73.1481 1.76235 74.2616 1.11949C75.3476 0.492507 76.4653 0.158736 77.615 0.118178C78.7646 0.0776207 79.8408 0.35437 80.8436 0.948428C81.8522 1.5208 82.6899 2.38434 83.3565 3.53904ZM75.687 3.54071C74.9584 3.96134 74.4657 4.52071 74.209 5.21882C73.9522 5.91693 73.9752 6.65513 74.2779 7.43344L79.7421 4.27868C79.2274 3.6411 78.6035 3.25897 77.8706 3.1323C77.1296 2.99187 76.4018 3.12801 75.687 3.54071Z" fill="#F42155"/>
<path d="M3.54762 0.192542C3.58278 0.182396 3.61811 0.172627 3.6536 0.163238C4.27069 0 5.02225 0 6.52538 0C7.13373 0 7.61898 0 8.02203 0.010822V0.00358622C9.50031 0.0489233 10.6993 0.523918 11.619 1.42857C12.6032 2.38095 13.0952 3.79365 13.0952 5.66667V12.9899C11.9564 11.8323 10.7132 10.7777 9.38095 9.84117V6.23809C9.38095 5.22222 9.15873 4.46825 8.71429 3.97619C8.26984 3.46825 7.62699 3.21428 6.78572 3.21428C5.84921 3.21428 5.10318 3.50793 4.54762 4.09524C3.99206 4.66667 3.71429 5.52381 3.71429 6.66667V6.80093C2.51618 6.3338 1.27622 5.95032 0.00159582 5.65768C0.00747045 4.70678 0.0349255 4.13865 0.163235 3.65361C0.605222 1.98277 1.89222 0.670213 3.54762 0.192542Z" fill="#F42155"/>
<path d="M0 11.4754C1.29388 11.8576 2.53627 12.3593 3.71429 12.9678V13H0V11.4754Z" fill="#F42155"/>
</svg>
